<mxfile host="app.diagrams.net" agent="Mozilla/5.0 (Windows NT 10.0; Win64; x64) AppleWebKit/537.36 (KHTML, like Gecko) Chrome/134.0.0.0 Safari/537.36" version="26.1.2">
  <diagram name="第 1 页" id="p2nWNXjsKLNtVL2lfu06">
    <mxGraphModel dx="2514" dy="2047" grid="1" gridSize="10" guides="1" tooltips="1" connect="1" arrows="1" fold="1" page="1" pageScale="1" pageWidth="827" pageHeight="1169" math="0" shadow="0">
      <root>
        <mxCell id="0" />
        <mxCell id="1" parent="0" />
        <mxCell id="jwYVZPnirGc2iIpFIKIp-25" value="" style="rounded=0;whiteSpace=wrap;html=1;hachureGap=4;fontFamily=Architects Daughter;fontSource=https%3A%2F%2Ffonts.googleapis.com%2Fcss%3Ffamily%3DArchitects%2BDaughter;dashed=1;" vertex="1" parent="1">
          <mxGeometry x="50" y="380" width="1310" height="90" as="geometry" />
        </mxCell>
        <mxCell id="jwYVZPnirGc2iIpFIKIp-1" value="OSPI Controller" style="rounded=0;whiteSpace=wrap;html=1;sketch=1;hachureGap=4;jiggle=2;curveFitting=1;fontFamily=Architects Daughter;fontSource=https%3A%2F%2Ffonts.googleapis.com%2Fcss%3Ffamily%3DArchitects%2BDaughter;" vertex="1" parent="1">
          <mxGeometry x="80" y="407" width="150" height="30" as="geometry" />
        </mxCell>
        <mxCell id="jwYVZPnirGc2iIpFIKIp-2" value="SPI Driver" style="rounded=0;whiteSpace=wrap;html=1;sketch=1;hachureGap=4;jiggle=2;curveFitting=1;fontFamily=Architects Daughter;fontSource=https%3A%2F%2Ffonts.googleapis.com%2Fcss%3Ffamily%3DArchitects%2BDaughter;" vertex="1" parent="1">
          <mxGeometry x="80" y="240" width="140" height="30" as="geometry" />
        </mxCell>
        <mxCell id="jwYVZPnirGc2iIpFIKIp-3" value="SPI Nor/Nand Flash" style="rounded=0;whiteSpace=wrap;html=1;sketch=1;hachureGap=4;jiggle=2;curveFitting=1;fontFamily=Architects Daughter;fontSource=https%3A%2F%2Ffonts.googleapis.com%2Fcss%3Ffamily%3DArchitects%2BDaughter;" vertex="1" parent="1">
          <mxGeometry x="264" y="407" width="150" height="30" as="geometry" />
        </mxCell>
        <mxCell id="jwYVZPnirGc2iIpFIKIp-4" value="SPI Nor/Nand Driver" style="rounded=0;whiteSpace=wrap;html=1;sketch=1;hachureGap=4;jiggle=2;curveFitting=1;fontFamily=Architects Daughter;fontSource=https%3A%2F%2Ffonts.googleapis.com%2Fcss%3Ffamily%3DArchitects%2BDaughter;" vertex="1" parent="1">
          <mxGeometry x="264" y="240" width="156" height="30" as="geometry" />
        </mxCell>
        <mxCell id="jwYVZPnirGc2iIpFIKIp-5" value="MTD" style="rounded=0;whiteSpace=wrap;html=1;sketch=1;hachureGap=4;jiggle=2;curveFitting=1;fontFamily=Architects Daughter;fontSource=https%3A%2F%2Ffonts.googleapis.com%2Fcss%3Ffamily%3DArchitects%2BDaughter;" vertex="1" parent="1">
          <mxGeometry x="80" y="150" width="560" height="50" as="geometry" />
        </mxCell>
        <mxCell id="jwYVZPnirGc2iIpFIKIp-6" value="MTD Block" style="rounded=0;whiteSpace=wrap;html=1;sketch=1;hachureGap=4;jiggle=2;curveFitting=1;fontFamily=Architects Daughter;fontSource=https%3A%2F%2Ffonts.googleapis.com%2Fcss%3Ffamily%3DArchitects%2BDaughter;" vertex="1" parent="1">
          <mxGeometry x="90" y="70" width="120" height="40" as="geometry" />
        </mxCell>
        <mxCell id="jwYVZPnirGc2iIpFIKIp-7" value="MTD Char" style="rounded=0;whiteSpace=wrap;html=1;sketch=1;hachureGap=4;jiggle=2;curveFitting=1;fontFamily=Architects Daughter;fontSource=https%3A%2F%2Ffonts.googleapis.com%2Fcss%3Ffamily%3DArchitects%2BDaughter;" vertex="1" parent="1">
          <mxGeometry x="354" y="70" width="120" height="40" as="geometry" />
        </mxCell>
        <mxCell id="jwYVZPnirGc2iIpFIKIp-8" value="APP" style="rounded=0;whiteSpace=wrap;html=1;sketch=1;hachureGap=4;jiggle=2;curveFitting=1;fontFamily=Architects Daughter;fontSource=https%3A%2F%2Ffonts.googleapis.com%2Fcss%3Ffamily%3DArchitects%2BDaughter;" vertex="1" parent="1">
          <mxGeometry x="80" y="-50" width="150" height="50" as="geometry" />
        </mxCell>
        <mxCell id="jwYVZPnirGc2iIpFIKIp-9" value="MTD Utilities" style="rounded=0;whiteSpace=wrap;html=1;sketch=1;hachureGap=4;jiggle=2;curveFitting=1;fontFamily=Architects Daughter;fontSource=https%3A%2F%2Ffonts.googleapis.com%2Fcss%3Ffamily%3DArchitects%2BDaughter;" vertex="1" parent="1">
          <mxGeometry x="330" y="-50" width="170" height="50" as="geometry" />
        </mxCell>
        <mxCell id="jwYVZPnirGc2iIpFIKIp-10" value="Virt Flash Driver" style="rounded=0;whiteSpace=wrap;html=1;sketch=1;hachureGap=4;jiggle=2;curveFitting=1;fontFamily=Architects Daughter;fontSource=https%3A%2F%2Ffonts.googleapis.com%2Fcss%3Ffamily%3DArchitects%2BDaughter;" vertex="1" parent="1">
          <mxGeometry x="500" y="235" width="120" height="40" as="geometry" />
        </mxCell>
        <mxCell id="jwYVZPnirGc2iIpFIKIp-12" value="Mailbox" style="rounded=0;whiteSpace=wrap;html=1;sketch=1;hachureGap=4;jiggle=2;curveFitting=1;fontFamily=Architects Daughter;fontSource=https%3A%2F%2Ffonts.googleapis.com%2Fcss%3Ffamily%3DArchitects%2BDaughter;" vertex="1" parent="1">
          <mxGeometry x="590" y="407" width="105" height="30" as="geometry" />
        </mxCell>
        <mxCell id="jwYVZPnirGc2iIpFIKIp-13" value="Share Memory" style="rounded=0;whiteSpace=wrap;html=1;sketch=1;hachureGap=4;jiggle=2;curveFitting=1;fontFamily=Architects Daughter;fontSource=https%3A%2F%2Ffonts.googleapis.com%2Fcss%3Ffamily%3DArchitects%2BDaughter;" vertex="1" parent="1">
          <mxGeometry x="722" y="407" width="105" height="30" as="geometry" />
        </mxCell>
        <mxCell id="jwYVZPnirGc2iIpFIKIp-14" value="Virt flash Proxy" style="rounded=0;whiteSpace=wrap;html=1;sketch=1;hachureGap=4;jiggle=2;curveFitting=1;fontFamily=Architects Daughter;fontSource=https%3A%2F%2Ffonts.googleapis.com%2Fcss%3Ffamily%3DArchitects%2BDaughter;" vertex="1" parent="1">
          <mxGeometry x="827" y="167.5" width="120" height="35" as="geometry" />
        </mxCell>
        <mxCell id="jwYVZPnirGc2iIpFIKIp-15" value="SPI Driver" style="rounded=0;whiteSpace=wrap;html=1;sketch=1;hachureGap=4;jiggle=2;curveFitting=1;fontFamily=Architects Daughter;fontSource=https%3A%2F%2Ffonts.googleapis.com%2Fcss%3Ffamily%3DArchitects%2BDaughter;" vertex="1" parent="1">
          <mxGeometry x="1178" y="170" width="140" height="30" as="geometry" />
        </mxCell>
        <mxCell id="jwYVZPnirGc2iIpFIKIp-16" value="SPI Nor/Nand Driver" style="rounded=0;whiteSpace=wrap;html=1;sketch=1;hachureGap=4;jiggle=2;curveFitting=1;fontFamily=Architects Daughter;fontSource=https%3A%2F%2Ffonts.googleapis.com%2Fcss%3Ffamily%3DArchitects%2BDaughter;" vertex="1" parent="1">
          <mxGeometry x="987" y="170" width="156" height="30" as="geometry" />
        </mxCell>
        <mxCell id="jwYVZPnirGc2iIpFIKIp-17" value="QSPI Controller" style="rounded=0;whiteSpace=wrap;html=1;sketch=1;hachureGap=4;jiggle=2;curveFitting=1;fontFamily=Architects Daughter;fontSource=https%3A%2F%2Ffonts.googleapis.com%2Fcss%3Ffamily%3DArchitects%2BDaughter;" vertex="1" parent="1">
          <mxGeometry x="1166" y="407" width="150" height="30" as="geometry" />
        </mxCell>
        <mxCell id="jwYVZPnirGc2iIpFIKIp-18" value="SPI Nor/Nand Flash" style="rounded=0;whiteSpace=wrap;html=1;sketch=1;hachureGap=4;jiggle=2;curveFitting=1;fontFamily=Architects Daughter;fontSource=https%3A%2F%2Ffonts.googleapis.com%2Fcss%3Ffamily%3DArchitects%2BDaughter;" vertex="1" parent="1">
          <mxGeometry x="983" y="407" width="150" height="30" as="geometry" />
        </mxCell>
        <mxCell id="jwYVZPnirGc2iIpFIKIp-22" value="" style="endArrow=none;dashed=1;html=1;rounded=0;hachureGap=4;fontFamily=Architects Daughter;fontSource=https%3A%2F%2Ffonts.googleapis.com%2Fcss%3Ffamily%3DArchitects%2BDaughter;strokeColor=light-dark(#ef0b0b, #ededed);" edge="1" parent="1">
          <mxGeometry width="50" height="50" relative="1" as="geometry">
            <mxPoint x="710" y="280" as="sourcePoint" />
            <mxPoint x="710" y="-130" as="targetPoint" />
          </mxGeometry>
        </mxCell>
        <mxCell id="jwYVZPnirGc2iIpFIKIp-11" value="IPC Driver" style="rounded=0;whiteSpace=wrap;html=1;sketch=1;hachureGap=4;jiggle=2;curveFitting=1;fontFamily=Architects Daughter;fontSource=https%3A%2F%2Ffonts.googleapis.com%2Fcss%3Ffamily%3DArchitects%2BDaughter;" vertex="1" parent="1">
          <mxGeometry x="500" y="310" width="440" height="30" as="geometry" />
        </mxCell>
        <mxCell id="jwYVZPnirGc2iIpFIKIp-26" value="" style="endArrow=none;dashed=1;html=1;strokeWidth=2;rounded=0;hachureGap=4;fontFamily=Architects Daughter;fontSource=https%3A%2F%2Ffonts.googleapis.com%2Fcss%3Ffamily%3DArchitects%2BDaughter;" edge="1" parent="1">
          <mxGeometry width="50" height="50" relative="1" as="geometry">
            <mxPoint x="-90" y="30" as="sourcePoint" />
            <mxPoint x="672" y="30" as="targetPoint" />
          </mxGeometry>
        </mxCell>
        <mxCell id="jwYVZPnirGc2iIpFIKIp-27" value="UserSpace" style="text;html=1;align=center;verticalAlign=middle;whiteSpace=wrap;rounded=0;fontFamily=Architects Daughter;fontSource=https%3A%2F%2Ffonts.googleapis.com%2Fcss%3Ffamily%3DArchitects%2BDaughter;" vertex="1" parent="1">
          <mxGeometry x="-40" y="-50" width="60" height="30" as="geometry" />
        </mxCell>
        <mxCell id="jwYVZPnirGc2iIpFIKIp-28" value="Kernel" style="text;html=1;align=center;verticalAlign=middle;whiteSpace=wrap;rounded=0;fontFamily=Architects Daughter;fontSource=https%3A%2F%2Ffonts.googleapis.com%2Fcss%3Ffamily%3DArchitects%2BDaughter;" vertex="1" parent="1">
          <mxGeometry x="-60" y="155" width="60" height="30" as="geometry" />
        </mxCell>
        <mxCell id="jwYVZPnirGc2iIpFIKIp-30" value="" style="endArrow=none;dashed=1;html=1;strokeWidth=2;rounded=0;hachureGap=4;fontFamily=Architects Daughter;fontSource=https%3A%2F%2Ffonts.googleapis.com%2Fcss%3Ffamily%3DArchitects%2BDaughter;strokeColor=#FF8000;" edge="1" parent="1">
          <mxGeometry width="50" height="50" relative="1" as="geometry">
            <mxPoint x="-120" y="360" as="sourcePoint" />
            <mxPoint x="1523.3333333333333" y="360" as="targetPoint" />
          </mxGeometry>
        </mxCell>
        <mxCell id="jwYVZPnirGc2iIpFIKIp-31" value="&lt;font style=&quot;color: rgb(255, 0, 128); font-size: 18px;&quot;&gt;RTOS&lt;/font&gt;" style="text;html=1;align=center;verticalAlign=middle;whiteSpace=wrap;rounded=0;fontFamily=Architects Daughter;fontSource=https%3A%2F%2Ffonts.googleapis.com%2Fcss%3Ffamily%3DArchitects%2BDaughter;" vertex="1" parent="1">
          <mxGeometry x="1370" y="10" width="60" height="30" as="geometry" />
        </mxCell>
        <mxCell id="jwYVZPnirGc2iIpFIKIp-32" value="&lt;font style=&quot;color: rgb(255, 0, 128); font-size: 18px;&quot;&gt;Linux&lt;/font&gt;" style="text;html=1;align=center;verticalAlign=middle;whiteSpace=wrap;rounded=0;fontFamily=Architects Daughter;fontSource=https%3A%2F%2Ffonts.googleapis.com%2Fcss%3Ffamily%3DArchitects%2BDaughter;" vertex="1" parent="1">
          <mxGeometry x="500" y="-120" width="60" height="30" as="geometry" />
        </mxCell>
        <mxCell id="jwYVZPnirGc2iIpFIKIp-33" value="" style="endArrow=classic;startArrow=classic;html=1;rounded=0;sketch=1;hachureGap=4;jiggle=2;curveFitting=1;fontFamily=Architects Daughter;fontSource=https%3A%2F%2Ffonts.googleapis.com%2Fcss%3Ffamily%3DArchitects%2BDaughter;exitX=0.5;exitY=0;exitDx=0;exitDy=0;entryX=0.5;entryY=1;entryDx=0;entryDy=0;strokeColor=#FF9933;strokeWidth=2;" edge="1" parent="1" source="jwYVZPnirGc2iIpFIKIp-7" target="jwYVZPnirGc2iIpFIKIp-9">
          <mxGeometry width="50" height="50" relative="1" as="geometry">
            <mxPoint x="370" y="50" as="sourcePoint" />
            <mxPoint x="420" as="targetPoint" />
          </mxGeometry>
        </mxCell>
        <mxCell id="jwYVZPnirGc2iIpFIKIp-34" value="" style="endArrow=classic;startArrow=classic;html=1;rounded=0;sketch=1;hachureGap=4;jiggle=2;curveFitting=1;fontFamily=Architects Daughter;fontSource=https%3A%2F%2Ffonts.googleapis.com%2Fcss%3Ffamily%3DArchitects%2BDaughter;exitX=0.595;exitY=0.03;exitDx=0;exitDy=0;entryX=0.5;entryY=1;entryDx=0;entryDy=0;strokeColor=#FF9933;strokeWidth=2;exitPerimeter=0;" edge="1" parent="1" source="jwYVZPnirGc2iIpFIKIp-5" target="jwYVZPnirGc2iIpFIKIp-7">
          <mxGeometry width="50" height="50" relative="1" as="geometry">
            <mxPoint x="413" y="170" as="sourcePoint" />
            <mxPoint x="414" y="100" as="targetPoint" />
          </mxGeometry>
        </mxCell>
        <mxCell id="jwYVZPnirGc2iIpFIKIp-35" value="" style="endArrow=classic;startArrow=classic;html=1;rounded=0;sketch=1;hachureGap=4;jiggle=2;curveFitting=1;fontFamily=Architects Daughter;fontSource=https%3A%2F%2Ffonts.googleapis.com%2Fcss%3Ffamily%3DArchitects%2BDaughter;exitX=0.595;exitY=0.03;exitDx=0;exitDy=0;entryX=0.5;entryY=1;entryDx=0;entryDy=0;strokeColor=#FF9933;strokeWidth=2;exitPerimeter=0;" edge="1" parent="1">
          <mxGeometry width="50" height="50" relative="1" as="geometry">
            <mxPoint x="149.5" y="150" as="sourcePoint" />
            <mxPoint x="150.5" y="108" as="targetPoint" />
          </mxGeometry>
        </mxCell>
        <mxCell id="jwYVZPnirGc2iIpFIKIp-36" value="" style="endArrow=classic;startArrow=classic;html=1;rounded=0;sketch=1;hachureGap=4;jiggle=2;curveFitting=1;fontFamily=Architects Daughter;fontSource=https%3A%2F%2Ffonts.googleapis.com%2Fcss%3Ffamily%3DArchitects%2BDaughter;exitX=0.5;exitY=0;exitDx=0;exitDy=0;entryX=0.5;entryY=1;entryDx=0;entryDy=0;strokeColor=#FF9933;strokeWidth=2;" edge="1" parent="1">
          <mxGeometry width="50" height="50" relative="1" as="geometry">
            <mxPoint x="149.5" y="70" as="sourcePoint" />
            <mxPoint x="150.5" as="targetPoint" />
          </mxGeometry>
        </mxCell>
        <mxCell id="jwYVZPnirGc2iIpFIKIp-37" value="" style="endArrow=classic;startArrow=classic;html=1;rounded=0;sketch=1;hachureGap=4;jiggle=2;curveFitting=1;fontFamily=Architects Daughter;fontSource=https%3A%2F%2Ffonts.googleapis.com%2Fcss%3Ffamily%3DArchitects%2BDaughter;exitX=0.577;exitY=0.09;exitDx=0;exitDy=0;entryX=0.5;entryY=1;entryDx=0;entryDy=0;strokeColor=#FF9933;strokeWidth=2;exitPerimeter=0;" edge="1" parent="1" source="jwYVZPnirGc2iIpFIKIp-4">
          <mxGeometry width="50" height="50" relative="1" as="geometry">
            <mxPoint x="354" y="270" as="sourcePoint" />
            <mxPoint x="355" y="200" as="targetPoint" />
          </mxGeometry>
        </mxCell>
        <mxCell id="jwYVZPnirGc2iIpFIKIp-38" value="" style="endArrow=classic;startArrow=classic;html=1;rounded=0;sketch=1;hachureGap=4;jiggle=2;curveFitting=1;fontFamily=Architects Daughter;fontSource=https%3A%2F%2Ffonts.googleapis.com%2Fcss%3Ffamily%3DArchitects%2BDaughter;exitX=0.577;exitY=0.09;exitDx=0;exitDy=0;entryX=0.5;entryY=1;entryDx=0;entryDy=0;strokeColor=#FF9933;strokeWidth=2;exitPerimeter=0;" edge="1" parent="1">
          <mxGeometry width="50" height="50" relative="1" as="geometry">
            <mxPoint x="560" y="240" as="sourcePoint" />
            <mxPoint x="561" y="197" as="targetPoint" />
          </mxGeometry>
        </mxCell>
        <mxCell id="jwYVZPnirGc2iIpFIKIp-39" value="" style="endArrow=classic;startArrow=classic;html=1;rounded=0;sketch=1;hachureGap=4;jiggle=2;curveFitting=1;fontFamily=Architects Daughter;fontSource=https%3A%2F%2Ffonts.googleapis.com%2Fcss%3Ffamily%3DArchitects%2BDaughter;exitX=0.577;exitY=0.09;exitDx=0;exitDy=0;entryX=0.5;entryY=1;entryDx=0;entryDy=0;strokeColor=#FF9933;strokeWidth=2;exitPerimeter=0;" edge="1" parent="1">
          <mxGeometry width="50" height="50" relative="1" as="geometry">
            <mxPoint x="560" y="313" as="sourcePoint" />
            <mxPoint x="561" y="270" as="targetPoint" />
          </mxGeometry>
        </mxCell>
        <mxCell id="jwYVZPnirGc2iIpFIKIp-40" value="" style="endArrow=classic;startArrow=classic;html=1;rounded=0;sketch=1;hachureGap=4;jiggle=2;curveFitting=1;fontFamily=Architects Daughter;fontSource=https%3A%2F%2Ffonts.googleapis.com%2Fcss%3Ffamily%3DArchitects%2BDaughter;entryX=-0.02;entryY=0.605;entryDx=0;entryDy=0;entryPerimeter=0;exitX=1;exitY=0.5;exitDx=0;exitDy=0;" edge="1" parent="1" source="jwYVZPnirGc2iIpFIKIp-2" target="jwYVZPnirGc2iIpFIKIp-4">
          <mxGeometry width="50" height="50" relative="1" as="geometry">
            <mxPoint x="210" y="360" as="sourcePoint" />
            <mxPoint x="260" y="310" as="targetPoint" />
          </mxGeometry>
        </mxCell>
        <mxCell id="jwYVZPnirGc2iIpFIKIp-41" value="" style="endArrow=classic;startArrow=classic;html=1;rounded=0;sketch=1;hachureGap=4;jiggle=2;curveFitting=1;fontFamily=Architects Daughter;fontSource=https%3A%2F%2Ffonts.googleapis.com%2Fcss%3Ffamily%3DArchitects%2BDaughter;exitX=0.5;exitY=0;exitDx=0;exitDy=0;entryX=0.553;entryY=1.005;entryDx=0;entryDy=0;strokeColor=#FF9933;strokeWidth=2;entryPerimeter=0;" edge="1" parent="1" source="jwYVZPnirGc2iIpFIKIp-1" target="jwYVZPnirGc2iIpFIKIp-2">
          <mxGeometry width="50" height="50" relative="1" as="geometry">
            <mxPoint x="149.5" y="313" as="sourcePoint" />
            <mxPoint x="150.5" y="270" as="targetPoint" />
          </mxGeometry>
        </mxCell>
        <mxCell id="jwYVZPnirGc2iIpFIKIp-42" value="" style="endArrow=classic;startArrow=classic;html=1;rounded=0;sketch=1;hachureGap=4;jiggle=2;curveFitting=1;fontFamily=Architects Daughter;fontSource=https%3A%2F%2Ffonts.googleapis.com%2Fcss%3Ffamily%3DArchitects%2BDaughter;entryX=0;entryY=0.5;entryDx=0;entryDy=0;exitX=1;exitY=0.5;exitDx=0;exitDy=0;" edge="1" parent="1" source="jwYVZPnirGc2iIpFIKIp-1" target="jwYVZPnirGc2iIpFIKIp-3">
          <mxGeometry width="50" height="50" relative="1" as="geometry">
            <mxPoint x="223" y="423.5" as="sourcePoint" />
            <mxPoint x="264" y="426.5" as="targetPoint" />
          </mxGeometry>
        </mxCell>
        <mxCell id="jwYVZPnirGc2iIpFIKIp-43" value="" style="endArrow=classic;startArrow=classic;html=1;rounded=0;sketch=1;hachureGap=4;jiggle=2;curveFitting=1;fontFamily=Architects Daughter;fontSource=https%3A%2F%2Ffonts.googleapis.com%2Fcss%3Ffamily%3DArchitects%2BDaughter;exitX=0.5;exitY=0;exitDx=0;exitDy=0;strokeColor=#FF9933;strokeWidth=2;" edge="1" parent="1" source="jwYVZPnirGc2iIpFIKIp-12">
          <mxGeometry width="50" height="50" relative="1" as="geometry">
            <mxPoint x="640" y="380" as="sourcePoint" />
            <mxPoint x="643" y="340" as="targetPoint" />
          </mxGeometry>
        </mxCell>
        <mxCell id="jwYVZPnirGc2iIpFIKIp-44" value="" style="endArrow=classic;startArrow=classic;html=1;rounded=0;sketch=1;hachureGap=4;jiggle=2;curveFitting=1;fontFamily=Architects Daughter;fontSource=https%3A%2F%2Ffonts.googleapis.com%2Fcss%3Ffamily%3DArchitects%2BDaughter;exitX=0.5;exitY=0;exitDx=0;exitDy=0;strokeColor=#FF9933;strokeWidth=2;" edge="1" parent="1">
          <mxGeometry width="50" height="50" relative="1" as="geometry">
            <mxPoint x="774.3" y="407" as="sourcePoint" />
            <mxPoint x="774.3" y="340" as="targetPoint" />
          </mxGeometry>
        </mxCell>
        <mxCell id="jwYVZPnirGc2iIpFIKIp-45" value="" style="endArrow=classic;startArrow=classic;html=1;rounded=0;sketch=1;hachureGap=4;jiggle=2;curveFitting=1;fontFamily=Architects Daughter;fontSource=https%3A%2F%2Ffonts.googleapis.com%2Fcss%3Ffamily%3DArchitects%2BDaughter;exitX=0.884;exitY=-0.066;exitDx=0;exitDy=0;strokeColor=#FF9933;strokeWidth=2;exitPerimeter=0;" edge="1" parent="1" source="jwYVZPnirGc2iIpFIKIp-11">
          <mxGeometry width="50" height="50" relative="1" as="geometry">
            <mxPoint x="890" y="270" as="sourcePoint" />
            <mxPoint x="890" y="203" as="targetPoint" />
          </mxGeometry>
        </mxCell>
        <mxCell id="jwYVZPnirGc2iIpFIKIp-46" value="" style="endArrow=classic;startArrow=classic;html=1;rounded=0;sketch=1;hachureGap=4;jiggle=2;curveFitting=1;fontFamily=Architects Daughter;fontSource=https%3A%2F%2Ffonts.googleapis.com%2Fcss%3Ffamily%3DArchitects%2BDaughter;strokeColor=#FF9933;strokeWidth=2;entryX=1;entryY=0.5;entryDx=0;entryDy=0;" edge="1" parent="1" source="jwYVZPnirGc2iIpFIKIp-16" target="jwYVZPnirGc2iIpFIKIp-14">
          <mxGeometry width="50" height="50" relative="1" as="geometry">
            <mxPoint x="1010" y="310" as="sourcePoint" />
            <mxPoint x="1011" y="205" as="targetPoint" />
          </mxGeometry>
        </mxCell>
        <mxCell id="jwYVZPnirGc2iIpFIKIp-47" value="" style="endArrow=classic;startArrow=classic;html=1;rounded=0;sketch=1;hachureGap=4;jiggle=2;curveFitting=1;fontFamily=Architects Daughter;fontSource=https%3A%2F%2Ffonts.googleapis.com%2Fcss%3Ffamily%3DArchitects%2BDaughter;exitX=1;exitY=0.5;exitDx=0;exitDy=0;" edge="1" parent="1">
          <mxGeometry width="50" height="50" relative="1" as="geometry">
            <mxPoint x="1143" y="185" as="sourcePoint" />
            <mxPoint x="1180" y="185" as="targetPoint" />
          </mxGeometry>
        </mxCell>
        <mxCell id="jwYVZPnirGc2iIpFIKIp-48" value="" style="endArrow=classic;startArrow=classic;html=1;rounded=0;sketch=1;hachureGap=4;jiggle=2;curveFitting=1;fontFamily=Architects Daughter;fontSource=https%3A%2F%2Ffonts.googleapis.com%2Fcss%3Ffamily%3DArchitects%2BDaughter;strokeColor=#FF9933;strokeWidth=2;entryX=0.447;entryY=0.969;entryDx=0;entryDy=0;entryPerimeter=0;" edge="1" parent="1" source="jwYVZPnirGc2iIpFIKIp-17" target="jwYVZPnirGc2iIpFIKIp-15">
          <mxGeometry width="50" height="50" relative="1" as="geometry">
            <mxPoint x="1250" y="267" as="sourcePoint" />
            <mxPoint x="1250" y="200" as="targetPoint" />
          </mxGeometry>
        </mxCell>
        <mxCell id="jwYVZPnirGc2iIpFIKIp-49" value="" style="endArrow=classic;startArrow=classic;html=1;rounded=0;sketch=1;hachureGap=4;jiggle=2;curveFitting=1;fontFamily=Architects Daughter;fontSource=https%3A%2F%2Ffonts.googleapis.com%2Fcss%3Ffamily%3DArchitects%2BDaughter;exitX=1;exitY=0.5;exitDx=0;exitDy=0;" edge="1" parent="1">
          <mxGeometry width="50" height="50" relative="1" as="geometry">
            <mxPoint x="1129" y="421.65999999999997" as="sourcePoint" />
            <mxPoint x="1166" y="421.65999999999997" as="targetPoint" />
          </mxGeometry>
        </mxCell>
        <mxCell id="jwYVZPnirGc2iIpFIKIp-50" value="Hardware" style="text;html=1;align=center;verticalAlign=middle;whiteSpace=wrap;rounded=0;fontFamily=Architects Daughter;fontSource=https%3A%2F%2Ffonts.googleapis.com%2Fcss%3Ffamily%3DArchitects%2BDaughter;" vertex="1" parent="1">
          <mxGeometry x="-80" y="380" width="60" height="30" as="geometry" />
        </mxCell>
      </root>
    </mxGraphModel>
  </diagram>
</mxfile>
